<?xml version="1.0" encoding="utf-8"?>
<!-- Generator: Adobe Illustrator 15.0.0, SVG Export Plug-In . SVG Version: 6.00 Build 0)  -->
<!DOCTYPE svg PUBLIC "-//W3C//DTD SVG 1.1//EN" "http://www.w3.org/Graphics/SVG/1.1/DTD/svg11.dtd">
<svg version="1.1" xmlns="http://www.w3.org/2000/svg" xmlns:xlink="http://www.w3.org/1999/xlink" x="0px" y="0px" width="512px"
	 height="512px" viewBox="0 0 512 512" enable-background="new 0 0 512 512" xml:space="preserve">
<g id="Layer_1" display="none">
	<path display="inline" fill-rule="evenodd" clip-rule="evenodd" fill="#FFFFFF" d="M366,113c7.178,4.962,14.541,13.318,17,23
		c3.151,12.409,4.632,39.222-1,55c-12.649,35.442-63.788,27-113,27c-51.419,0-98.476,9.042-111-28c-4.592-13.583-4.944-42.682,0-57
		c3.041-8.805,15.189-21.718,24-25c18.616-6.934,55.833-3,79-3C294.344,105,347.252,100.039,366,113z M225,185
		c21.666-0.599,23.167-49.252-5-42C200.454,148.032,204.004,185.58,225,185z M314,184c17.479-4.204,19.282-48.31-8-41
		C285.045,148.614,291.853,189.327,314,184z"/>
	<path display="inline" fill-rule="evenodd" clip-rule="evenodd" fill="#1A1A1A" d="M220,143c28.167-7.252,26.666,41.401,5,42
		C204.004,185.58,200.454,148.032,220,143z"/>
	<path display="inline" fill-rule="evenodd" clip-rule="evenodd" fill="#1A1A1A" d="M306,143c27.282-7.31,25.479,36.796,8,41
		C291.853,189.327,285.045,148.614,306,143z"/>
	<path display="inline" fill-rule="evenodd" clip-rule="evenodd" fill="#1A1A1A" d="M151,325c17.231-11.103,34.555-22.111,56-29
		c-51.256-27.882-104.162-81.076-87-166C132.989,65.729,189.602,14.588,258,9c92.986-7.598,165.019,57.349,171,135
		c6.091,79.065-35.938,122.494-87,150c55.569,22.076,97.349,55.88,122,113c3.537,8.196,9.968,20.549,9,27
		c-1.432,9.543-26.516,23.231-37,29c-43.504,23.938-90.518,41.455-155,43c-80.503,1.929-134.554-14.482-188-43
		c-6.839-3.649-17.853-9.535-19-14c-2.032-7.909,5.039-21.659,8-30c10.428-29.367,25.083-50.962,43-71L151,325z M261,105
		c-23.167,0-60.384-3.934-79,3c-8.811,3.282-20.959,16.195-24,25c-4.944,14.318-4.592,43.417,0,57c12.524,37.042,59.581,28,111,28
		c49.212,0,100.351,8.442,113-27c5.632-15.778,4.151-42.591,1-55c-2.459-9.682-9.822-18.038-17-23
		C347.252,100.039,294.344,105,261,105z"/>
</g>
<g id="ninja">
	<path id="body" d="M241.186,277.322c-80.521,0-146.707,84.194-154.373,191.93c44.633,13.259,97.584,20.94,154.373,20.94
		s109.74-7.682,154.372-20.94C387.892,361.517,321.705,277.322,241.186,277.322z"/>
	<ellipse id="head" fill-rule="evenodd" clip-rule="evenodd" cx="235.516" cy="167.85" rx="146.99" ry="128.71"/>
	<path id="face" fill-rule="evenodd" clip-rule="evenodd" fill="#F2F2F2" d="M377.751,162.067
		c0,28.847-58.873,52.232-131.498,52.232c-72.623,0-131.497-23.385-131.497-52.232c0-28.847,58.874-41.398,131.497-41.398
		C318.878,120.669,377.751,133.22,377.751,162.067z"/>
	<g id="eyes">
		<ellipse fill="#1A1A1A" cx="245.003" cy="167.667" rx="9.666" ry="17.667"/>
		<ellipse fill="#1A1A1A" cx="317.003" cy="167.667" rx="9.666" ry="17.667"/>
	</g>
	<path id="katana" fill-rule="evenodd" clip-rule="evenodd" d="M389.961,128.771c-0.563,71.972-6.238,142.309-10.775,210.21
		c-2.992,1.743-7.349,0.845-7.477,4.675c-0.101,3.167,3.026,3.508,6.391,4.444c-1.849,42.086-8.261,87.803-15.524,125.988
		c-1.132,5.947-1.594,11.938-3.401,16.25c5.471-2.412,10.839-5.01,16.101-7.785c8.616-42.135,14.769-86.77,18.038-134.334
		c3.522-1.131,7.911-0.171,8.146-3.993c0.19-3.086-2.945-4.228-7.063-4.45c6.849-91.562,14.226-194.661,9.447-292.79
		c-5.092-3.609-10.323-7.034-15.681-10.27C389.396,67.105,390.203,97.864,389.961,128.771z"/>
	<path id="hand" fill-rule="evenodd" clip-rule="evenodd" d="M397.353,420.257c-18.682-2.141-32.011-20.184-29.715-40.219
		c2.295-20.037,19.362-34.597,38.043-32.456c18.679,2.142,21.081,18.932,18.785,38.968S416.032,422.398,397.353,420.257z"/>
	<path id="thumb" fill-rule="evenodd" clip-rule="evenodd" d="M367.415,372.63c-8.262-2.188-11.464-7.94-9.027-17.135
		c2.438-9.193,6.979-10.823,15.24-8.633c8.262,2.191,14.856,6.771,12.42,15.964C383.612,372.021,375.676,374.82,367.415,372.63z"/>
</g>
</svg>
